# xmcd
#
# Track frame offsets: 
#        183
#        46383
#        104158
#        153458
#        193458
#        222505
#
# Disc length: 3346 seconds
#
# Revision: 7
# Processed by: cddbd v1.5.2PL0 Copyright (c) Steve Scherf et al.
# Submitted via: ExactAudioCopy v1.0b3
#
DISCID=5f0d1006
DTITLE=Alfred Brendel (piano) I solisti di Zagreb (Antonio Janigro) - 
DTITLE=AB - CD01 Concertos pour piano n°9 and 14
DYEAR=1966
DGENRE=Classique
TTITLE0=Mozart - Concerto pour piano n°9 en mi bémol majeur K271 ''Jeu
TTITLE0=nehomme'' - I. Allegro
TTITLE1=Mozart - Concerto pour piano n°9 en mi bémol majeur K.271 ''Je
TTITLE1=unehomme'' - II. Andantino
TTITLE2=Mozart - Concerto pour piano n°9 en mi bémol majeur K.271 ''Je
TTITLE2=unehomme'' - III. Rondo
TTITLE3=Mozart - Concerto pour piano n°14 en mi bémol majeur K.449 - I
TTITLE3=Allegro vivace
TTITLE4=Mozart - Concerto pour piano n°14 en mi bémol majeur K.449 - I
TTITLE4=I. Andantino
TTITLE5=Mozart - Concerto pour piano n°14 en mi bémol majeur K.449 - I
TTITLE5=II. Allegro ma non Troppo
EXTD=YEAR: 1966
EXTT0=
EXTT1=
EXTT2=
EXTT3=
EXTT4=
EXTT5=
PLAYORDER=
